<?xml version="1.0" encoding="UTF-8"?>
<svg id="Layer_1" data-name="Layer 1" xmlns="http://www.w3.org/2000/svg" viewBox="0 0 184.57 47.57">
  <defs>
    <style>
      .cls-1 {
        fill: #ff8c2b;
      }

      .cls-1, .cls-2 {
        stroke-width: 0px;
      }

      .cls-3 {
        isolation: isolate;
      }

      .cls-2 {
        fill: #fff;
      }
    </style>
  </defs>
  <path class="cls-1" d="M23.72,0c13.14-.04,23.82,10.58,23.85,23.72.04,13.14-10.58,23.82-23.72,23.85C10.72,47.61.04,36.99,0,23.85c0-.02,0-.04,0-.07C0,10.68,10.61.04,23.72,0Z"/>
  <g class="cls-3">
    <g class="cls-3">
      <path class="cls-2" d="M26.14,10.3v2.44h-10v7.75h8.12v2.44h-8.12v10.36h-3V10.3h13Z"/>
      <path class="cls-2" d="M29.87,11.69c-.4-.4-.59-.88-.59-1.45s.2-1.06.59-1.45c.4-.4.88-.59,1.45-.59s1.02.2,1.4.59c.38.4.58.88.58,1.45s-.19,1.06-.58,1.45c-.39.4-.85.59-1.4.59s-1.06-.2-1.45-.59ZM32.77,15.22v18.08h-3V15.22h3Z"/>
      <path class="cls-2" d="M41.55,17.69v10.66c0,.88.19,1.5.56,1.86.37.36,1.02.54,1.95.54h2.21v2.54h-2.71c-1.67,0-2.93-.38-3.76-1.16-.84-.77-1.25-2.03-1.25-3.79v-10.66h-2.34v-2.47h2.34v-4.55h3v4.55h4.72v2.47h-4.72Z"/>
      <path class="cls-2" d="M64.06,16.88c1.36,1.33,2.05,3.25,2.05,5.76v10.66h-2.97v-10.23c0-1.8-.45-3.18-1.35-4.14-.9-.96-2.13-1.44-3.7-1.44s-2.84.5-3.78,1.48c-.94.99-1.4,2.43-1.4,4.32v10h-3V15.22h3v2.57c.59-.92,1.4-1.64,2.43-2.15,1.02-.51,2.15-.76,3.38-.76,2.2,0,3.98.67,5.35,2Z"/>
      <path class="cls-2" d="M87.42,25.38h-14.45c.11,1.78.72,3.17,1.83,4.17s2.46,1.5,4.04,1.5c1.3,0,2.38-.3,3.25-.91.87-.6,1.48-1.41,1.83-2.43h3.23c-.48,1.74-1.45,3.15-2.9,4.24-1.45,1.09-3.26,1.63-5.41,1.63-1.72,0-3.25-.38-4.6-1.16-1.35-.77-2.41-1.86-3.18-3.28-.77-1.42-1.16-3.06-1.16-4.93s.37-3.51,1.12-4.92c.75-1.41,1.8-2.49,3.15-3.25,1.35-.76,2.91-1.14,4.67-1.14s3.23.37,4.55,1.12,2.34,1.78,3.05,3.08c.71,1.31,1.07,2.79,1.07,4.44,0,.57-.03,1.18-.1,1.82ZM83.66,19.99c-.51-.83-1.19-1.45-2.06-1.88-.87-.43-1.83-.64-2.89-.64-1.52,0-2.81.48-3.88,1.45-1.07.97-1.68,2.31-1.83,4.03h11.42c0-1.14-.25-2.13-.76-2.95Z"/>
      <path class="cls-2" d="M94.15,32.89c-1.1-.47-1.97-1.13-2.61-1.98-.64-.85-.99-1.82-1.06-2.92h3.1c.09.9.51,1.64,1.27,2.21.76.57,1.75.86,2.99.86,1.14,0,2.05-.25,2.71-.76.66-.51.99-1.14.99-1.91s-.35-1.38-1.06-1.77c-.7-.38-1.79-.76-3.27-1.14-1.34-.35-2.44-.71-3.28-1.07-.85-.36-1.57-.9-2.18-1.62-.6-.71-.91-1.66-.91-2.82,0-.92.27-1.77.82-2.54.55-.77,1.33-1.38,2.34-1.83,1.01-.45,2.17-.68,3.46-.68,2,0,3.62.51,4.85,1.52,1.23,1.01,1.89,2.4,1.98,4.16h-3c-.07-.95-.45-1.7-1.14-2.28-.69-.57-1.62-.86-2.79-.86-1.08,0-1.94.23-2.57.69-.64.46-.96,1.07-.96,1.82,0,.59.19,1.08.58,1.47.38.38.87.69,1.45.92.58.23,1.39.49,2.43.78,1.3.35,2.35.7,3.17,1.04.81.34,1.51.85,2.1,1.53.58.68.89,1.57.91,2.67,0,.99-.28,1.88-.83,2.67s-1.33,1.41-2.33,1.86c-1,.45-2.15.68-3.45.68-1.39,0-2.63-.24-3.73-.71Z"/>
      <path class="cls-2" d="M111.38,32.89c-1.1-.47-1.97-1.13-2.61-1.98-.64-.85-.99-1.82-1.06-2.92h3.1c.09.9.51,1.64,1.27,2.21.76.57,1.75.86,2.99.86,1.14,0,2.05-.25,2.71-.76.66-.51.99-1.14.99-1.91s-.35-1.38-1.06-1.77c-.7-.38-1.79-.76-3.27-1.14-1.34-.35-2.44-.71-3.28-1.07-.85-.36-1.57-.9-2.18-1.62-.6-.71-.91-1.66-.91-2.82,0-.92.27-1.77.82-2.54.55-.77,1.33-1.38,2.34-1.83,1.01-.45,2.17-.68,3.46-.68,2,0,3.62.51,4.85,1.52,1.23,1.01,1.89,2.4,1.98,4.16h-3c-.07-.95-.45-1.7-1.14-2.28-.69-.57-1.62-.86-2.79-.86-1.08,0-1.94.23-2.57.69-.64.46-.96,1.07-.96,1.82,0,.59.19,1.08.58,1.47.38.38.87.69,1.45.92.58.23,1.39.49,2.43.78,1.3.35,2.35.7,3.17,1.04.81.34,1.51.85,2.1,1.53.58.68.89,1.57.91,2.67,0,.99-.28,1.88-.83,2.67s-1.33,1.41-2.33,1.86c-1,.45-2.15.68-3.45.68-1.39,0-2.63-.24-3.73-.71Z"/>
    </g>
    <g class="cls-3">
      <path class="cls-2" d="M149.44,20.86c-.58,1.08-1.5,1.95-2.74,2.61-1.24.66-2.81.99-4.7.99h-3.86v8.84h-4.62V10.27h8.48c1.78,0,3.3.31,4.55.92,1.25.62,2.19,1.46,2.82,2.54.63,1.08.94,2.3.94,3.66,0,1.23-.29,2.39-.87,3.46ZM144.64,19.85c.62-.58.92-1.4.92-2.46,0-2.24-1.25-3.37-3.76-3.37h-3.66v6.7h3.66c1.28,0,2.22-.29,2.84-.87Z"/>
      <path class="cls-2" d="M160.53,15.58c.96-.55,2.05-.83,3.28-.83v4.85h-1.22c-1.45,0-2.55.34-3.28,1.02s-1.11,1.87-1.11,3.56v9.11h-4.62V15.02h4.62v2.84c.59-.97,1.37-1.73,2.33-2.28Z"/>
      <path class="cls-2" d="M170.28,32.43c-1.41-.78-2.51-1.89-3.32-3.32-.8-1.43-1.21-3.08-1.21-4.95s.41-3.52,1.24-4.95c.83-1.43,1.95-2.54,3.38-3.32,1.43-.78,3.02-1.17,4.79-1.17s3.35.39,4.79,1.17c1.43.78,2.56,1.89,3.38,3.32.83,1.43,1.24,3.08,1.24,4.95s-.42,3.52-1.27,4.95c-.85,1.43-1.99,2.54-3.43,3.32-1.44.78-3.05,1.17-4.83,1.17s-3.34-.39-4.75-1.17ZM177.4,28.96c.74-.41,1.33-1.02,1.77-1.83.44-.81.66-1.8.66-2.97,0-1.74-.46-3.07-1.37-4.01-.91-.93-2.03-1.4-3.35-1.4s-2.42.47-3.32,1.4c-.89.94-1.34,2.27-1.34,4.01s.43,3.07,1.3,4.01c.87.94,1.96,1.4,3.28,1.4.84,0,1.62-.2,2.36-.61Z"/>
    </g>
  </g>
</svg>